<svg width="512" height="512" viewBox="0 0 72 72" fill="none" xmlns="http://www.w3.org/2000/svg">
  <circle cx="36" cy="36" r="36" fill="#C19A6B"/>
  <path d="M19.1 27.9c-1.4-1.1-1.4-3.3 0-4.4 1.8-1.4 4.3-1.4 6.1 0 1.4 1.1 1.4 3.3 0 4.4-1.8 1.4-4.3 1.4-6.1 0" fill="#422B0D"/>
  <path d="M46.9 27.9c-1.4-1.1-1.4-3.3 0-4.4 1.8-1.4 4.3-1.4 6.1 0 1.4 1.1 1.4 3.3 0 4.4-1.8 1.4-4.3 1.4-6.1 0" fill="#422B0D"/>
  <path d="M36 44c-6.1 0-11-4.9-11-11s4.9-11 11-11 11 4.9 11 11-4.9 11-11 11" fill="#947661"/>
  <path d="M36 41c-4.4 0-8-3.6-8-8s3.6-8 8-8 8 3.6 8 8-3.6 8-8 8" fill="#422B0D"/>
  <path d="M32.5 37c-.8 0-1.5-.7-1.5-1.5s.7-1.5 1.5-1.5 1.5.7 1.5 1.5-.7 1.5-1.5 1.5" fill="#fff"/>
  <path d="M39.5 37c-.8 0-1.5-.7-1.5-1.5s.7-1.5 1.5-1.5 1.5.7 1.5 1.5-.7 1.5-1.5 1.5" fill="#fff"/>
  <path d="M36 40c-1.7 0-3-1.3-3-3s1.3-3 3-3 3 1.3 3 3-1.3 3-3 3" fill="#947661"/>
  <path d="M15 25c0-2.8 2.2-5 5-5s5 2.2 5 5" stroke="#422B0D" stroke-width="2"/>
  <path d="M47 25c0-2.8 2.2-5 5-5s5 2.2 5 5" stroke="#422B0D" stroke-width="2"/>
</svg> 